<?xml version="1.0" standalone="no"?>
<!DOCTYPE svg PUBLIC "-//W3C//DTD SVG 20010904//EN"
 "http://www.w3.org/TR/2001/REC-SVG-20010904/DTD/svg10.dtd">
<svg version="1.0" xmlns="http://www.w3.org/2000/svg"
 width="128.000000pt" height="128.000000pt" viewBox="0 0 128.000000 128.000000"
 preserveAspectRatio="xMidYMid meet">

<g transform="translate(0.000000,128.000000) scale(0.100000,-0.100000)"
fill="#000000" stroke="none">
<path d="M82 1263 c-63 -31 -77 -64 -80 -195 -3 -109 -2 -117 17 -128 15 -8
27 -8 41 0 18 10 20 21 20 115 0 142 3 145 145 145 94 0 105 2 115 20 8 14 8
26 0 40 -10 18 -21 20 -118 20 -78 0 -116 -5 -140 -17z"/>
<path d="M947 1265 c-21 -20 -21 -29 -1 -49 12 -12 38 -16 113 -16 89 0 99 -2
119 -23 20 -21 22 -34 22 -125 0 -91 2 -102 20 -112 14 -8 26 -8 40 0 18 10
20 21 20 116 0 120 -13 161 -64 197 -27 19 -46 22 -142 25 -93 3 -114 1 -127
-13z"/>
<path d="M540 1148 c-25 -14 -58 -44 -75 -67 -27 -39 -30 -50 -30 -120 0 -68
3 -82 27 -117 15 -21 44 -50 65 -64 31 -21 48 -25 113 -25 65 0 82 4 113 25
21 14 50 43 65 64 24 35 27 49 27 116 0 67 -3 81 -27 116 -44 62 -90 88 -167
92 -55 3 -74 -1 -111 -20z m193 -97 c29 -28 32 -37 32 -91 0 -54 -3 -63 -33
-92 -29 -30 -38 -33 -92 -33 -54 0 -63 3 -91 32 -27 26 -33 41 -37 87 -4 55
-3 57 37 97 40 40 42 41 97 37 46 -4 61 -10 87 -37z"/>
<path d="M400 631 c-74 -24 -138 -79 -166 -146 -11 -25 -19 -78 -22 -140 -4
-91 -3 -102 16 -118 16 -15 24 -16 41 -7 19 10 21 20 21 98 1 132 27 187 105
223 35 16 67 19 245 19 178 0 210 -3 245 -19 78 -36 104 -91 105 -223 0 -78 2
-88 21 -98 17 -9 25 -8 41 7 19 16 20 27 16 118 -7 145 -44 215 -143 268 -37
21 -55 22 -270 24 -126 1 -241 -2 -255 -6z"/>
<path d="M15 333 c-14 -13 -16 -34 -13 -127 3 -96 6 -115 25 -142 36 -51 77
-64 197 -64 95 0 106 2 116 20 8 14 8 26 0 40 -10 18 -21 20 -114 20 -94 0
-104 2 -124 23 -19 21 -22 34 -22 119 0 74 -4 100 -16 112 -20 20 -29 20 -49
-1z"/>
<path d="M1216 334 c-12 -12 -16 -38 -16 -113 0 -89 -2 -99 -23 -119 -21 -19
-34 -22 -119 -22 -74 0 -100 -4 -112 -16 -20 -20 -20 -29 1 -49 13 -14 34 -16
127 -13 125 3 160 18 190 82 23 48 23 228 0 250 -8 9 -19 16 -24 16 -5 0 -16
-7 -24 -16z"/>
</g>
</svg>
