<?xml version="1.0" standalone="no"?>
<!DOCTYPE svg PUBLIC "-//W3C//DTD SVG 20010904//EN"
 "http://www.w3.org/TR/2001/REC-SVG-20010904/DTD/svg10.dtd">
<svg version="1.0" xmlns="http://www.w3.org/2000/svg"
 width="512.000000pt" height="512.000000pt" viewBox="0 0 512.000000 512.000000"
 preserveAspectRatio="xMidYMid meet">

<g transform="translate(0.000000,512.000000) scale(0.100000,-0.100000)"
fill="#000000" stroke="none">
<path d="M500 5105 c-231 -50 -437 -257 -485 -490 -18 -86 -21 -568 -4 -629
15 -54 83 -119 142 -135 95 -27 195 13 244 97 l28 47 5 281 c5 279 5 281 30
317 14 21 43 50 64 65 l39 27 281 5 281 5 47 28 c84 49 124 149 97 244 -16 59
-78 124 -135 141 -60 18 -547 15 -634 -3z"/>
<path d="M3982 5109 c-49 -14 -118 -88 -132 -141 -26 -95 14 -196 98 -245 l47
-28 281 -5 281 -5 39 -27 c21 -15 50 -44 64 -65 25 -36 25 -38 30 -317 l5
-281 28 -47 c71 -121 234 -142 332 -43 64 63 67 88 63 416 -4 258 -6 290 -26
349 -53 161 -176 305 -322 378 -128 64 -181 72 -490 71 -146 0 -280 -5 -298
-10z"/>
<path d="M2385 4676 c-309 -73 -540 -282 -637 -576 -26 -81 -31 -114 -35 -225
-6 -148 6 -222 56 -350 41 -107 100 -195 190 -286 179 -178 378 -255 636 -246
113 3 143 8 225 36 139 47 230 102 330 201 178 175 260 367 260 610 0 121 -16
203 -59 315 -43 112 -101 196 -201 295 -100 99 -191 154 -330 201 -86 29 -109
33 -235 35 -96 3 -159 -1 -200 -10z"/>
<path d="M1710 2548 c-36 -5 -105 -22 -154 -39 -387 -130 -650 -452 -696 -854
-13 -115 -13 -639 0 -685 12 -45 65 -97 111 -110 46 -14 3132 -14 3178 0 46
13 99 65 111 110 13 46 13 569 0 685 -52 461 -410 831 -864 894 -96 14 -1591
13 -1686 -1z"/>
<path d="M142 1269 c-46 -14 -118 -88 -131 -135 -17 -61 -14 -543 4 -629 44
-213 219 -405 435 -477 59 -20 91 -22 349 -26 328 -4 353 -1 416 63 99 98 78
261 -43 332 l-47 28 -281 5 c-279 5 -281 5 -317 30 -21 14 -50 43 -65 64 l-27
39 -5 281 -5 281 -28 47 c-49 84 -160 126 -255 97z"/>
<path d="M4809 1252 c-39 -20 -62 -41 -84 -77 l-30 -48 -5 -282 -5 -282 -27
-39 c-15 -21 -44 -50 -65 -64 -36 -25 -38 -25 -317 -30 l-281 -5 -47 -28
c-121 -71 -143 -233 -45 -331 65 -65 89 -68 418 -64 258 4 290 6 349 26 194
64 358 228 422 422 20 59 22 91 26 349 4 328 0 353 -62 416 -70 69 -159 83
-247 37z"/>
</g>
</svg>
