<?xml version="1.0" standalone="no"?>
<!DOCTYPE svg PUBLIC "-//W3C//DTD SVG 20010904//EN"
 "http://www.w3.org/TR/2001/REC-SVG-20010904/DTD/svg10.dtd">
<svg version="1.0" xmlns="http://www.w3.org/2000/svg"
 width="256.000000pt" height="256.000000pt" viewBox="0 0 256.000000 256.000000"
 preserveAspectRatio="xMidYMid meet">

<g transform="translate(0.000000,256.000000) scale(0.100000,-0.100000)"
fill="#000000" stroke="none">
<path d="M540 2223 c-98 -34 -170 -107 -204 -206 -11 -32 -16 -82 -16 -153 0
-98 2 -107 25 -129 29 -30 74 -32 106 -6 22 18 24 28 29 134 5 125 14 147 74
191 23 18 47 22 143 26 106 5 116 7 134 29 26 32 24 77 -6 106 -23 24 -30 25
-132 25 -71 -1 -123 -6 -153 -17z"/>
<path d="M1736 2216 c-31 -30 -34 -74 -7 -107 18 -22 28 -24 134 -29 125 -5
147 -14 191 -74 18 -23 22 -47 26 -143 5 -106 7 -116 29 -134 33 -27 77 -24
107 7 26 25 26 27 22 147 -5 141 -23 192 -93 262 -70 70 -121 88 -262 93 -120
4 -122 4 -147 -22z"/>
<path d="M1179 1917 c-92 -26 -186 -99 -235 -182 -61 -104 -71 -290 -22 -411
l24 -61 -54 -28 c-130 -68 -222 -210 -230 -357 -4 -72 -3 -81 18 -103 28 -30
78 -33 110 -7 17 14 24 34 30 96 14 125 84 216 192 252 53 17 63 16 148 -15
72 -27 168 -27 240 0 85 31 95 32 148 15 109 -36 180 -131 192 -254 6 -61 12
-80 30 -94 32 -26 82 -23 110 7 21 22 22 31 18 103 -8 147 -100 289 -230 357
l-54 28 24 61 c18 43 26 87 30 151 10 196 -67 339 -223 416 -74 36 -189 48
-266 26z m217 -183 c73 -44 106 -105 112 -202 7 -125 -23 -198 -106 -256 -33
-24 -56 -31 -105 -34 -97 -6 -176 37 -219 122 -26 49 -36 171 -19 232 40 150
208 218 337 138z"/>
<path d="M344 824 c-26 -25 -26 -27 -22 -147 5 -141 23 -192 93 -262 70 -70
121 -88 262 -93 120 -4 122 -4 147 22 31 30 34 74 7 107 -18 22 -28 24 -134
29 -96 4 -120 8 -143 26 -60 44 -69 66 -74 191 -5 106 -7 116 -29 134 -33 27
-77 24 -107 -7z"/>
<path d="M2109 831 c-22 -18 -24 -28 -29 -134 -5 -125 -14 -147 -74 -191 -23
-18 -47 -22 -143 -26 -106 -5 -116 -7 -134 -29 -27 -33 -24 -77 7 -107 25 -26
27 -26 147 -22 141 5 192 23 262 93 70 70 88 121 93 262 4 120 4 122 -22 147
-30 31 -74 34 -107 7z"/>
</g>
</svg>
