<?xml version="1.0" standalone="no"?>
<!DOCTYPE svg PUBLIC "-//W3C//DTD SVG 20010904//EN"
 "http://www.w3.org/TR/2001/REC-SVG-20010904/DTD/svg10.dtd">
<svg version="1.0" xmlns="http://www.w3.org/2000/svg"
 width="981.000000pt" height="982.000000pt" viewBox="0 0 981.000000 982.000000"
 preserveAspectRatio="xMidYMid meet">

<g transform="translate(0.000000,982.000000) scale(0.100000,-0.100000)"
fill="#000000" stroke="none">
<path d="M262 9790 c-103 -37 -173 -105 -224 -215 l-23 -50 0 -1220 0 -1220
31 -65 c39 -83 101 -145 184 -184 59 -28 74 -31 160 -31 87 0 101 3 161 32 79
39 140 102 177 181 l27 57 5 990 5 990 995 5 995 5 58 30 c77 38 158 126 188
202 31 80 31 196 0 276 -32 81 -113 166 -193 203 l-63 29 -1215 2 c-1173 2
-1217 2 -1268 -17z"/>
<path d="M7039 9787 c-98 -41 -156 -94 -207 -190 -25 -48 -27 -61 -27 -162 0
-106 1 -112 34 -173 39 -72 97 -129 173 -169 l53 -28 995 -5 995 -5 5 -990 5
-990 29 -60 c38 -76 105 -144 181 -180 54 -26 70 -29 160 -30 90 0 106 3 157
28 77 38 144 107 182 187 l31 65 0 1221 0 1220 -38 76 c-42 87 -92 136 -177
177 l-55 26 -1220 2 -1220 3 -56 -23z"/>
<path d="M4758 7789 c-394 -31 -744 -185 -993 -434 -203 -202 -316 -424 -371
-725 -25 -135 -29 -432 -10 -672 l17 -207 -45 -55 c-58 -71 -83 -152 -97 -307
-20 -236 20 -428 136 -659 42 -83 58 -141 90 -313 14 -76 36 -166 49 -201 22
-62 94 -178 163 -263 l34 -41 -11 -129 c-22 -264 -60 -432 -128 -572 -28 -58
-56 -96 -123 -163 -78 -79 -97 -92 -210 -146 -142 -69 -314 -130 -579 -207
-376 -108 -558 -211 -621 -349 -55 -120 14 -270 142 -306 49 -14 5381 -13
5432 1 21 5 53 24 73 41 114 100 101 269 -29 383 -92 80 -227 140 -482 215
-430 127 -649 215 -782 314 -186 140 -283 394 -308 806 l-7 115 65 86 c71 95
143 229 153 287 41 243 67 340 124 462 103 221 130 329 130 528 0 214 -24 314
-97 414 l-46 62 7 110 c3 61 11 165 16 231 15 183 12 430 -5 528 -67 385 -322
751 -661 950 -280 164 -666 245 -1026 216z m494 -487 c122 -32 271 -96 355
-153 152 -104 296 -289 353 -455 42 -119 43 -141 45 -539 2 -490 18 -630 80
-703 24 -28 25 -37 25 -154 0 -151 -12 -201 -90 -373 -67 -148 -90 -224 -125
-412 -13 -73 -31 -146 -40 -162 -8 -17 -49 -75 -90 -129 -101 -134 -118 -181
-116 -336 1 -133 23 -379 47 -513 76 -440 227 -666 556 -833 l119 -60 -1463 0
-1462 0 111 55 c358 176 508 417 582 931 30 210 46 483 32 540 -17 66 -62 150
-118 220 -81 100 -102 145 -119 246 -27 165 -72 325 -120 420 -25 49 -58 129
-74 178 -27 79 -30 100 -30 218 0 106 3 132 16 143 32 26 57 96 71 194 8 59
17 270 22 515 10 455 16 501 82 648 55 122 190 278 312 361 117 79 319 155
483 181 33 5 145 7 249 6 173 -3 200 -6 307 -34z"/>
<path d="M321 3019 c-116 -20 -227 -106 -279 -217 l-27 -57 0 -1225 0 -1225
31 -65 c37 -79 107 -150 183 -188 l56 -27 1230 0 1230 0 57 27 c113 53 194
158 218 286 31 154 -59 326 -208 399 l-57 28 -995 5 -995 5 -5 995 -5 995 -28
55 c-78 156 -237 237 -406 209z"/>
<path d="M9371 3019 c-116 -20 -227 -106 -279 -217 l-27 -57 -5 -990 -5 -990
-995 -5 -995 -5 -56 -28 c-67 -32 -151 -118 -182 -184 -18 -40 -22 -66 -22
-153 0 -93 3 -111 27 -162 34 -74 107 -146 183 -184 l60 -29 1230 0 1230 0 58
29 c72 37 150 118 185 193 l27 58 3 1200 c2 1180 2 1201 -18 1267 -54 178
-233 288 -419 257z"/>
</g>
</svg>
